<svg width="12" height="12" viewBox="0 0 97 97" fill="none" xmlns="http://www.w3.org/2000/svg">
<g clip-path="url(#clip0_625_94)">
<path fill-rule="evenodd" clip-rule="evenodd" d="M48.5002 7.47332C25.8417 7.47332 7.47344 25.8416 7.47344 48.5001C7.47344 71.1585 25.8417 89.5268 48.5002 89.5268C71.1586 89.5268 89.5269 71.1585 89.5269 48.5001C89.5269 25.8416 71.1586 7.47332 48.5002 7.47332ZM-0.152344 48.5001C-0.152344 21.63 21.6301 -0.152466 48.5002 -0.152466C75.3702 -0.152466 97.1527 21.63 97.1527 48.5001C97.1527 75.3701 75.3702 97.1526 48.5002 97.1526C21.6301 97.1526 -0.152344 75.3701 -0.152344 48.5001Z" fill="#171717"/>
<path d="M57.0404 64.6667C56.7354 64.3616 56.7354 63.7516 56.4304 63.1415C56.4304 62.5314 56.1253 61.9214 56.1253 61.3113C55.5153 61.9214 54.9052 62.2264 54.2952 62.8365C53.6851 63.4465 52.77 63.7516 52.1599 64.0566C51.2448 64.3616 50.6348 64.6667 49.4147 64.9717C48.4996 65.2767 47.2794 65.2767 46.3643 65.2767C44.5342 65.2767 43.009 64.9717 41.4838 64.3616C39.9587 63.7516 38.7386 63.1415 37.5184 62.2264C36.2983 61.3113 35.6882 60.0912 35.0782 58.8711C34.4681 57.6509 34.1631 56.1258 34.1631 54.6006C34.1631 50.9402 35.6882 47.8899 38.4335 46.0597C41.1788 43.9245 45.4493 43.0094 50.9398 43.0094H56.1253V40.8742C56.1253 39.044 55.5153 37.8239 54.6002 36.9088C53.3801 35.9937 51.8549 35.3836 49.7197 35.3836C47.8895 35.3836 46.6694 35.6887 45.7543 36.6038C44.8392 37.5189 44.5342 38.434 44.5342 39.6541H35.3832C35.3832 38.1289 35.6882 36.6038 36.2983 35.3836C36.9084 34.1635 37.8235 32.9434 39.3486 31.7233C40.5687 30.8082 42.0939 29.8931 43.9241 29.283C45.7543 28.673 47.8895 28.3679 50.3298 28.3679C52.465 28.3679 54.2952 28.673 56.1253 29.283C57.9555 29.8931 59.4807 30.5031 61.0059 31.7233C62.226 32.6384 63.4461 34.1635 64.0562 35.6887C64.6662 37.2138 65.2763 39.044 65.2763 41.1792V56.4308C65.2763 58.261 65.2763 59.7862 65.5813 61.0063C65.8864 62.2264 66.1914 63.4465 66.4964 64.0566V64.6667H57.0404ZM48.1945 58.261C49.1096 58.261 50.0247 58.261 50.6348 57.956C51.5499 57.6509 52.1599 57.3459 52.77 57.0409C53.3801 56.7358 53.9901 56.4308 54.2952 55.8207C54.6002 55.5157 55.2103 54.9057 55.5153 54.6006V48.5H50.9398C49.4147 48.5 48.1945 48.5 47.2794 48.805C46.3643 49.1101 45.4492 49.4151 44.8392 50.0252C44.2291 50.6352 43.6191 50.9402 43.314 51.8553C43.009 52.4654 43.009 53.3805 43.009 53.9906C43.009 55.2107 43.314 56.1258 44.2291 57.0409C45.1442 57.956 46.6694 58.261 48.1945 58.261Z" fill="#171717"/>
</g>
<defs>
<clipPath id="clip0_625_94">
<rect width="97" height="97" fill="white"/>
</clipPath>
</defs>
</svg>
