<svg
  width="888"
  height="888"
  viewBox="244 266 384 364"
  fill="none"
  xmlns="http://www.w3.org/2000/svg"
>
  <path
    fill-rule="evenodd"
    clip-rule="evenodd"
    d="M274.6 291.919C291.205 275.323 313.727 266 337.211 266H603.288V313.65H535.583C534.103 329.072 532.643 343.878 531.244 358.07C523.939 432.181 518.284 489.542 520.042 530.345C521.183 556.82 528.357 575.263 530.179 577.631C532 580 533.417 581.062 536.076 582.32C543.627 585.894 552.544 582.279 560.592 580.04C570.215 577.363 583.45 572.979 592.22 567.214C616.569 551.206 627.325 530.049 628.83 505.604C638.195 530.279 634.316 568.995 621.396 588.339C607.996 608.401 587.536 620.21 561.489 628.942L559.479 629.616L557.383 629.925C544.643 631.801 532.014 631.406 520.248 627.268C508.146 623.011 498.537 615.341 491.379 605.323C478.009 586.613 473.609 560.27 472.408 532.395C471.112 502.297 473.5 464.134 477.471 419.414C478.29 410.184 479.178 400.674 480.114 390.898C481.348 378.001 482.668 364.641 484.031 350.848C485.224 338.773 486.45 326.367 487.68 313.65H412.325C409.775 342.282 410 350.848 410 350.848C410 350.848 407.747 366.837 405.388 383.5C403.196 398.986 400.912 415.056 400.261 419.414C395.112 453.885 389.257 481.91 382.313 505.604C367.952 554.601 349.02 584.791 323.499 614.936L287.101 584.159C308.953 558.347 324.324 533.948 336.557 492.209C348.014 453.117 356.755 398.671 364.455 313.65C364.455 313.65 351.921 313.65 337.211 313.65C322.5 313.65 311.884 316.474 296.786 322.158C273.45 330.945 262.733 337.859 244 358.07C251.576 331.718 253.754 316.699 274.6 291.919Z"
    fill="black"
  />
</svg>